<?xml version="1.0" encoding="utf-8"?>
<svg version="1.1" xmlns:xlink="http://www.w3.org/1999/xlink" width="25px" height="64px" xmlns="http://www.w3.org/2000/svg">
  <g transform="matrix(1 0 0 1 -1225 -642 )">
    <path d="M 24.5704467353952 3.84769539078156  C 24.8568155784651 4.2752171008684  25 4.76686706746826  25 5.32264529058116  C 25 5.87842351369405  24.8568155784651 6.37007348029392  24.5704467353952 6.79759519038076  L 7.68900343642612 32  L 24.5704467353952 57.2024048096192  C 24.8568155784651 57.6299265197061  25 58.1215764863059  25 58.6773547094188  C 25 59.2331329325317  24.8568155784651 59.7247828991316  24.5704467353952 60.1523046092184  L 22.4226804123711 63.3587174348697  C 22.1363115693013 63.7862391449566  21.8069873997709 64  21.4347079037801 64  C 21.0624284077892 64  20.7331042382589 63.7862391449566  20.446735395189 63.3587174348697  L 0.429553264604811 33.4749498997996  C 0.143184421534937 33.0474281897128  0 32.5557782231129  0 32  C 0 31.4442217768871  0.143184421534937 30.9525718102872  0.429553264604811 30.5250501002004  L 20.446735395189 0.641282565130261  C 20.7331042382589 0.213760855043418  21.0624284077892 0  21.4347079037801 0  C 21.8069873997709 0  22.1363115693013 0.213760855043418  22.4226804123711 0.641282565130261  L 24.5704467353952 3.84769539078156  Z " fill-rule="nonzero" fill="#f50707" stroke="none" fill-opacity="0.407843137254902" transform="matrix(1 0 0 1 1225 642 )" />
  </g>
</svg>