<?xml version="1.0" encoding="utf-8"?>
<svg version="1.1" xmlns:xlink="http://www.w3.org/1999/xlink" width="100px" height="60px" xmlns="http://www.w3.org/2000/svg">
  <g transform="matrix(1 0 0 1 -387 -45 )">
    <path d="M 437 45  C 465 45  487 58.2  487 75  C 487 91.8  465 105  437 105  C 409 105  387 91.8  387 75  C 387 58.2  409 45  437 45  Z " fill-rule="nonzero" fill="#ffffff" stroke="none" />
    <path d="M 437 45.5  C 464.72 45.5  486.5 58.48  486.5 75  C 486.5 91.52  464.72 104.5  437 104.5  C 409.28 104.5  387.5 91.52  387.5 75  C 387.5 58.48  409.28 45.5  437 45.5  Z " stroke-width="1" stroke="#797979" fill="none" />
  </g>
</svg>