<?xml version="1.0" encoding="utf-8"?>
<svg version="1.1" xmlns:xlink="http://www.w3.org/1999/xlink" width="12px" height="12px" viewBox="882 390.5  12 12" xmlns="http://www.w3.org/2000/svg">
  <path d="M 888 390.5  C 891.36 390.5  894 393.14  894 396.5  C 894 399.86  891.36 402.5  888 402.5  C 884.64 402.5  882 399.86  882 396.5  C 882 393.14  884.64 390.5  888 390.5  Z " fill-rule="nonzero" fill="#ffffff" stroke="none" />
  <path d="M 888 391  C 891.08 391  893.5 393.42  893.5 396.5  C 893.5 399.58  891.08 402  888 402  C 884.92 402  882.5 399.58  882.5 396.5  C 882.5 393.42  884.92 391  888 391  Z " stroke-width="1" stroke="#797979" fill="none" />
  <path d="M 888 399.5  C 886.32 399.5  885 398.18  885 396.5  C 885 394.82  886.32 393.5  888 393.5  C 889.68 393.5  891 394.82  891 396.5  C 891 398.18  889.68 399.5  888 399.5  " fill-rule="nonzero" fill="#797979" stroke="none" />
</svg>