<?xml version="1.0" encoding="utf-8"?>
<svg version="1.1" xmlns:xlink="http://www.w3.org/1999/xlink" width="12px" height="12px" viewBox="709 390.5  12 12" xmlns="http://www.w3.org/2000/svg">
  <path d="M 715 390.5  C 718.36 390.5  721 393.14  721 396.5  C 721 399.86  718.36 402.5  715 402.5  C 711.64 402.5  709 399.86  709 396.5  C 709 393.14  711.64 390.5  715 390.5  Z " fill-rule="nonzero" fill="#ffffff" stroke="none" />
  <path d="M 715 391  C 718.08 391  720.5 393.42  720.5 396.5  C 720.5 399.58  718.08 402  715 402  C 711.92 402  709.5 399.58  709.5 396.5  C 709.5 393.42  711.92 391  715 391  Z " stroke-width="1" stroke="#797979" fill="none" />
  <path d="M 715 399.5  C 713.32 399.5  712 398.18  712 396.5  C 712 394.82  713.32 393.5  715 393.5  C 716.68 393.5  718 394.82  718 396.5  C 718 398.18  716.68 399.5  715 399.5  " fill-rule="nonzero" fill="#797979" stroke="none" />
</svg>