<?xml version="1.0" encoding="utf-8"?>
<svg version="1.1" xmlns:xlink="http://www.w3.org/1999/xlink" width="12px" height="12px" viewBox="622 390.5  12 12" xmlns="http://www.w3.org/2000/svg">
  <path d="M 628 390.5  C 631.36 390.5  634 393.14  634 396.5  C 634 399.86  631.36 402.5  628 402.5  C 624.64 402.5  622 399.86  622 396.5  C 622 393.14  624.64 390.5  628 390.5  Z " fill-rule="nonzero" fill="#f0f0f0" stroke="none" />
  <path d="M 628 391  C 631.08 391  633.5 393.42  633.5 396.5  C 633.5 399.58  631.08 402  628 402  C 624.92 402  622.5 399.58  622.5 396.5  C 622.5 393.42  624.92 391  628 391  Z " stroke-width="1" stroke="#797979" fill="none" />
  <path d="M 628 399.5  C 626.32 399.5  625 398.18  625 396.5  C 625 394.82  626.32 393.5  628 393.5  C 629.68 393.5  631 394.82  631 396.5  C 631 398.18  629.68 399.5  628 399.5  " fill-rule="nonzero" fill="#797979" stroke="none" />
</svg>