<?xml version="1.0" encoding="utf-8"?>
<svg version="1.1" xmlns:xlink="http://www.w3.org/1999/xlink" width="12px" height="12px" viewBox="552 390.5  12 12" xmlns="http://www.w3.org/2000/svg">
  <path d="M 558 390.5  C 561.36 390.5  564 393.14  564 396.5  C 564 399.86  561.36 402.5  558 402.5  C 554.64 402.5  552 399.86  552 396.5  C 552 393.14  554.64 390.5  558 390.5  Z " fill-rule="nonzero" fill="#f0f0f0" stroke="none" />
  <path d="M 558 391  C 561.08 391  563.5 393.42  563.5 396.5  C 563.5 399.58  561.08 402  558 402  C 554.92 402  552.5 399.58  552.5 396.5  C 552.5 393.42  554.92 391  558 391  Z " stroke-width="1" stroke="#797979" fill="none" />
  <path d="M 558 399.5  C 556.32 399.5  555 398.18  555 396.5  C 555 394.82  556.32 393.5  558 393.5  C 559.68 393.5  561 394.82  561 396.5  C 561 398.18  559.68 399.5  558 399.5  " fill-rule="nonzero" fill="#797979" stroke="none" />
</svg>