<?xml version="1.0" encoding="utf-8"?>
<svg version="1.1" xmlns:xlink="http://www.w3.org/1999/xlink" width="12px" height="12px" viewBox="915 390.5  12 12" xmlns="http://www.w3.org/2000/svg">
  <path d="M 921 390.5  C 924.36 390.5  927 393.14  927 396.5  C 927 399.86  924.36 402.5  921 402.5  C 917.64 402.5  915 399.86  915 396.5  C 915 393.14  917.64 390.5  921 390.5  Z " fill-rule="nonzero" fill="#ffffff" stroke="none" />
  <path d="M 921 391  C 924.08 391  926.5 393.42  926.5 396.5  C 926.5 399.58  924.08 402  921 402  C 917.92 402  915.5 399.58  915.5 396.5  C 915.5 393.42  917.92 391  921 391  Z " stroke-width="1" stroke="#797979" fill="none" />
  <path d="M 921 399.5  C 919.32 399.5  918 398.18  918 396.5  C 918 394.82  919.32 393.5  921 393.5  C 922.68 393.5  924 394.82  924 396.5  C 924 398.18  922.68 399.5  921 399.5  " fill-rule="nonzero" fill="#797979" stroke="none" />
</svg>