<?xml version="1.0" encoding="utf-8"?>
<svg version="1.1" xmlns:xlink="http://www.w3.org/1999/xlink" width="502px" height="100px" xmlns="http://www.w3.org/2000/svg">
  <g transform="matrix(1 0 0 1 -40 -32 )">
    <path d="M 41 36  A 3 3 0 0 1 44 33 L 538 33  A 3 3 0 0 1 541 36 L 541 128  A 3 3 0 0 1 538 131 L 44 131  A 3 3 0 0 1 41 128 L 41 36  Z " fill-rule="nonzero" fill="#ff3399" stroke="none" fill-opacity="0.0980392156862745" />
    <path d="M 40.5 36  A 3.5 3.5 0 0 1 44 32.5 L 538 32.5  A 3.5 3.5 0 0 1 541.5 36 L 541.5 128  A 3.5 3.5 0 0 1 538 131.5 L 44 131.5  A 3.5 3.5 0 0 1 40.5 128 L 40.5 36  Z " stroke-width="1" stroke-dasharray="9,4" stroke="#ff3399" fill="none" stroke-dashoffset="0.5" />
  </g>
</svg>