<?xml version="1.0" encoding="utf-8"?>
<svg version="1.1" xmlns:xlink="http://www.w3.org/1999/xlink" width="102px" height="88px" xmlns="http://www.w3.org/2000/svg">
  <g transform="matrix(1 0 0 1 -104 0 )">
    <path d="M 104 0  L 206 0  L 206 88  L 104 88  L 104 0  " fill-rule="nonzero" fill="#cccccc" stroke="none" />
    <path d="M 110 6  L 200 6  L 200 82  L 110 82  L 110 6  " fill-rule="nonzero" fill="#ffffff" stroke="none" />
    <path d="M 163.64 26.4  C 159.944 26.4  157.04 23.496  157.04 19.8  C 157.04 16.104  159.944 13.2  163.64 13.2  C 167.336 13.2  170.24 16.104  170.24 19.8  C 170.24 23.496  167.336 26.4  163.64 26.4  " fill-rule="nonzero" fill="#cccccc" stroke="none" />
    <path d="M 112 80  L 112 40.4  L 133.5 22.4  L 163.6 42.7294117647059  L 180.8 33.2  L 198 42.7294117647059  L 198 80  L 112 80  " fill-rule="nonzero" fill="#169bd5" stroke="none" />
  </g>
</svg>