<?xml version="1.0" encoding="utf-8"?>
<svg version="1.1" xmlns:xlink="http://www.w3.org/1999/xlink" width="104px" height="104px" xmlns="http://www.w3.org/2000/svg">
  <g transform="matrix(1 0 0 1 -538 -464 )">
    <path d="M 539 468  A 3 3 0 0 1 542 465 L 638 465  A 3 3 0 0 1 641 468 L 641 564  A 3 3 0 0 1 638 567 L 542 567  A 3 3 0 0 1 539 564 L 539 468  Z " fill-rule="nonzero" fill="#000000" stroke="none" fill-opacity="0.0196078431372549" />
    <path d="M 538.5 468  A 3.5 3.5 0 0 1 542 464.5 L 638 464.5  A 3.5 3.5 0 0 1 641.5 468 L 641.5 564  A 3.5 3.5 0 0 1 638 567.5 L 542 567.5  A 3.5 3.5 0 0 1 538.5 564 L 538.5 468  Z " stroke-width="1" stroke-dasharray="9,4" stroke="#000000" fill="none" stroke-opacity="0.149019607843137" stroke-dashoffset="0.5" />
  </g>
</svg>