<?xml version="1.0" encoding="utf-8"?>
<svg version="1.1" xmlns:xlink="http://www.w3.org/1999/xlink" width="79px" height="47px" xmlns="http://www.w3.org/2000/svg">
  <g transform="matrix(1 0 0 1 -93 -66 )">
    <path d="M 132.5 66  C 154.62 66  172 76.34  172 89.5  C 172 102.66  154.62 113  132.5 113  C 110.38 113  93 102.66  93 89.5  C 93 76.34  110.38 66  132.5 66  Z " fill-rule="nonzero" fill="#ffffff" stroke="none" />
    <path d="M 132.5 66.5  C 154.34 66.5  171.5 76.62  171.5 89.5  C 171.5 102.38  154.34 112.5  132.5 112.5  C 110.66 112.5  93.5 102.38  93.5 89.5  C 93.5 76.62  110.66 66.5  132.5 66.5  Z " stroke-width="1" stroke="#797979" fill="none" />
  </g>
</svg>