<?xml version="1.0" encoding="utf-8"?>
<svg version="1.1" xmlns:xlink="http://www.w3.org/1999/xlink" width="104px" height="104px" xmlns="http://www.w3.org/2000/svg">
  <g transform="matrix(1 0 0 1 -241 -732 )">
    <path d="M 242 736  A 3 3 0 0 1 245 733 L 341 733  A 3 3 0 0 1 344 736 L 344 832  A 3 3 0 0 1 341 835 L 245 835  A 3 3 0 0 1 242 832 L 242 736  Z " fill-rule="nonzero" fill="#ffffff" stroke="none" />
    <path d="M 241.5 736  A 3.5 3.5 0 0 1 245 732.5 L 341 732.5  A 3.5 3.5 0 0 1 344.5 736 L 344.5 832  A 3.5 3.5 0 0 1 341 835.5 L 245 835.5  A 3.5 3.5 0 0 1 241.5 832 L 241.5 736  Z " stroke-width="1" stroke-dasharray="9,4" stroke="#d9d9d9" fill="none" stroke-dashoffset="0.5" />
  </g>
</svg>