<?xml version="1.0" encoding="utf-8"?>
<svg version="1.1" xmlns:xlink="http://www.w3.org/1999/xlink" width="104px" height="104px" xmlns="http://www.w3.org/2000/svg">
  <g transform="matrix(1 0 0 1 -241 -693 )">
    <path d="M 242 697  A 3 3 0 0 1 245 694 L 341 694  A 3 3 0 0 1 344 697 L 344 793  A 3 3 0 0 1 341 796 L 245 796  A 3 3 0 0 1 242 793 L 242 697  Z " fill-rule="nonzero" fill="#ffffff" stroke="none" />
    <path d="M 241.5 697  A 3.5 3.5 0 0 1 245 693.5 L 341 693.5  A 3.5 3.5 0 0 1 344.5 697 L 344.5 793  A 3.5 3.5 0 0 1 341 796.5 L 245 796.5  A 3.5 3.5 0 0 1 241.5 793 L 241.5 697  Z " stroke-width="1" stroke-dasharray="9,4" stroke="#d9d9d9" fill="none" stroke-dashoffset="0.5" />
  </g>
</svg>