<?xml version="1.0" encoding="utf-8"?>
<svg version="1.1" xmlns:xlink="http://www.w3.org/1999/xlink" width="104px" height="104px" xmlns="http://www.w3.org/2000/svg">
  <g transform="matrix(1 0 0 1 -121 -693 )">
    <path d="M 122 697  A 3 3 0 0 1 125 694 L 221 694  A 3 3 0 0 1 224 697 L 224 793  A 3 3 0 0 1 221 796 L 125 796  A 3 3 0 0 1 122 793 L 122 697  Z " fill-rule="nonzero" fill="#000000" stroke="none" fill-opacity="0.0196078431372549" />
    <path d="M 121.5 697  A 3.5 3.5 0 0 1 125 693.5 L 221 693.5  A 3.5 3.5 0 0 1 224.5 697 L 224.5 793  A 3.5 3.5 0 0 1 221 796.5 L 125 796.5  A 3.5 3.5 0 0 1 121.5 793 L 121.5 697  Z " stroke-width="1" stroke-dasharray="9,4" stroke="#d9d9d9" fill="none" stroke-dashoffset="0.5" />
  </g>
</svg>