<?xml version="1.0" encoding="utf-8"?>
<svg version="1.1" xmlns:xlink="http://www.w3.org/1999/xlink" width="104px" height="104px" xmlns="http://www.w3.org/2000/svg">
  <g transform="matrix(1 0 0 1 -121 -732 )">
    <path d="M 122 736  A 3 3 0 0 1 125 733 L 221 733  A 3 3 0 0 1 224 736 L 224 832  A 3 3 0 0 1 221 835 L 125 835  A 3 3 0 0 1 122 832 L 122 736  Z " fill-rule="nonzero" fill="#000000" stroke="none" fill-opacity="0.0196078431372549" />
    <path d="M 121.5 736  A 3.5 3.5 0 0 1 125 732.5 L 221 732.5  A 3.5 3.5 0 0 1 224.5 736 L 224.5 832  A 3.5 3.5 0 0 1 221 835.5 L 125 835.5  A 3.5 3.5 0 0 1 121.5 832 L 121.5 736  Z " stroke-width="1" stroke-dasharray="9,4" stroke="#d9d9d9" fill="none" stroke-dashoffset="0.5" />
  </g>
</svg>