<?xml version="1.0" encoding="utf-8"?>
<svg version="1.1" xmlns:xlink="http://www.w3.org/1999/xlink" width="10px" height="10px" xmlns="http://www.w3.org/2000/svg">
  <g transform="matrix(1 0 0 1 -539 -341 )">
    <path d="M 544 342  C 546.24 342  548 343.76  548 346  C 548 348.24  546.24 350  544 350  C 541.76 350  540 348.24  540 346  C 540 343.76  541.76 342  544 342  Z " fill-rule="nonzero" fill="#ffffff" stroke="none" />
    <path d="M 544 342  C 546.24 342  548 343.76  548 346  C 548 348.24  546.24 350  544 350  C 541.76 350  540 348.24  540 346  C 540 343.76  541.76 342  544 342  Z " stroke-width="2" stroke="#fe0000" fill="none" />
  </g>
</svg>