<?xml version="1.0" encoding="utf-8"?>
<svg version="1.1" xmlns:xlink="http://www.w3.org/1999/xlink" width="10px" height="10px" xmlns="http://www.w3.org/2000/svg">
  <g transform="matrix(1 0 0 1 -539 -421 )">
    <path d="M 544 422  C 546.24 422  548 423.76  548 426  C 548 428.24  546.24 430  544 430  C 541.76 430  540 428.24  540 426  C 540 423.76  541.76 422  544 422  Z " fill-rule="nonzero" fill="#ffffff" stroke="none" />
    <path d="M 544 422  C 546.24 422  548 423.76  548 426  C 548 428.24  546.24 430  544 430  C 541.76 430  540 428.24  540 426  C 540 423.76  541.76 422  544 422  Z " stroke-width="2" stroke="#d9d9d9" fill="none" />
  </g>
</svg>