<?xml version="1.0" encoding="utf-8"?>
<svg version="1.1" xmlns:xlink="http://www.w3.org/1999/xlink" width="10px" height="10px" xmlns="http://www.w3.org/2000/svg">
  <g transform="matrix(1 0 0 1 -1593 -296 )">
    <path d="M 1598 297  C 1600.24 297  1602 298.76  1602 301  C 1602 303.24  1600.24 305  1598 305  C 1595.76 305  1594 303.24  1594 301  C 1594 298.76  1595.76 297  1598 297  Z " fill-rule="nonzero" fill="#ffffff" stroke="none" />
    <path d="M 1598 297  C 1600.24 297  1602 298.76  1602 301  C 1602 303.24  1600.24 305  1598 305  C 1595.76 305  1594 303.24  1594 301  C 1594 298.76  1595.76 297  1598 297  Z " stroke-width="2" stroke="#0e8a19" fill="none" />
  </g>
</svg>