<?xml version="1.0" encoding="utf-8"?>
<svg version="1.1" xmlns:xlink="http://www.w3.org/1999/xlink" width="10px" height="10px" xmlns="http://www.w3.org/2000/svg">
  <g transform="matrix(1 0 0 1 -539 -259 )">
    <path d="M 544 260  C 546.24 260  548 261.76  548 264  C 548 266.24  546.24 268  544 268  C 541.76 268  540 266.24  540 264  C 540 261.76  541.76 260  544 260  Z " fill-rule="nonzero" fill="#ffffff" stroke="none" />
    <path d="M 544 260  C 546.24 260  548 261.76  548 264  C 548 266.24  546.24 268  544 268  C 541.76 268  540 266.24  540 264  C 540 261.76  541.76 260  544 260  Z " stroke-width="2" stroke="#1890ff" fill="none" />
  </g>
</svg>