<?xml version="1.0" encoding="utf-8"?>
<svg version="1.1" xmlns:xlink="http://www.w3.org/1999/xlink" width="109px" height="74px" xmlns="http://www.w3.org/2000/svg">
  <g transform="matrix(1 0 0 1 -238 -810 )">
    <path d="M 239 814  A 3 3 0 0 1 242 811 L 343 811  A 3 3 0 0 1 346 814 L 346 880  A 3 3 0 0 1 343 883 L 242 883  A 3 3 0 0 1 239 880 L 239 814  Z " fill-rule="nonzero" fill="#ffffff" stroke="none" />
    <path d="M 238.5 814  A 3.5 3.5 0 0 1 242 810.5 L 343 810.5  A 3.5 3.5 0 0 1 346.5 814 L 346.5 880  A 3.5 3.5 0 0 1 343 883.5 L 242 883.5  A 3.5 3.5 0 0 1 238.5 880 L 238.5 814  Z " stroke-width="1" stroke-dasharray="9,4" stroke="#d9d9d9" fill="none" stroke-dashoffset="0.5" />
  </g>
</svg>