<?xml version="1.0" encoding="utf-8"?>
<svg version="1.1" xmlns:xlink="http://www.w3.org/1999/xlink" width="18px" height="10px" xmlns="http://www.w3.org/2000/svg">
  <g transform="matrix(1 0 0 1 -1379 -30 )">
    <path d="M 17.666015625 0.329861111111112  C 17.888671875 0.549768518518517  18 0.810185185185183  18 1.11111111111111  C 18 1.41203703703704  17.888671875 1.6724537037037  17.666015625 1.89236111111111  L 9.791015625 9.67013888888889  C 9.568359375 9.8900462962963  9.3046875 10  9 10  C 8.6953125 10  8.431640625 9.8900462962963  8.208984375 9.67013888888889  L 0.333984375 1.89236111111111  C 0.111328125 1.6724537037037  0 1.41203703703704  0 1.11111111111111  C 0 0.810185185185183  0.111328125 0.549768518518517  0.333984375 0.329861111111112  C 0.556640625 0.109953703703702  0.8203125 0  1.125 0  L 16.875 0  C 17.1796875 0  17.443359375 0.109953703703702  17.666015625 0.329861111111112  Z " fill-rule="nonzero" fill="#797979" stroke="none" transform="matrix(1 0 0 1 1379 30 )" />
  </g>
</svg>