<?xml version="1.0" encoding="utf-8"?>
<svg version="1.1" xmlns:xlink="http://www.w3.org/1999/xlink" width="29px" height="16px" xmlns="http://www.w3.org/2000/svg">
  <g transform="matrix(1 0 0 1 -383 -99 )">
    <path d="M 28.4619140625 0.527777777777779  C 28.8206380208333 0.879629629629628  29 1.29629629629629  29 1.77777777777778  C 29 2.25925925925926  28.8206380208333 2.67592592592592  28.4619140625 3.02777777777778  L 15.7744140625 15.4722222222222  C 15.4156901041667 15.8240740740741  14.9908854166667 16  14.5 16  C 14.0091145833333 16  13.5843098958333 15.8240740740741  13.2255859375 15.4722222222222  L 0.5380859375 3.02777777777778  C 0.179361979166667 2.67592592592592  0 2.25925925925926  0 1.77777777777778  C 0 1.29629629629629  0.179361979166667 0.879629629629628  0.5380859375 0.527777777777779  C 0.896809895833333 0.175925925925924  1.32161458333333 0  1.8125 0  L 27.1875 0  C 27.6783854166667 0  28.1031901041667 0.175925925925924  28.4619140625 0.527777777777779  Z " fill-rule="nonzero" fill="#d5d5d5" stroke="none" transform="matrix(1 0 0 1 383 99 )" />
  </g>
</svg>