<?xml version="1.0" encoding="utf-8"?>
<svg version="1.1" xmlns:xlink="http://www.w3.org/1999/xlink" width="17px" height="19px" xmlns="http://www.w3.org/2000/svg">
  <g transform="matrix(1 0 0 1 -1412 -359 )">
    <path d="M 10.0662525879917 16.9819639278557  C 10.1835748792271 17.1088844355377  10.2422360248447 17.2548430193721  10.2422360248447 17.4198396793587  C 10.2422360248447 17.5848363393454  10.1835748792271 17.7307949231797  10.0662525879917 17.8577154308617  L 9.18633540372671 18.809619238477  C 9.06901311249137 18.936539746159  8.93409247757074 19  8.7815734989648 19  C 8.62905452035887 19  8.49413388543823 18.936539746159  8.3768115942029 18.809619238477  L 0.175983436853002 9.93787575150301  C 0.0586611456176674 9.81095524382097  0 9.66499665998664  0 9.5  C 0 9.33500334001336  0.0586611456176674 9.18904475617902  0.175983436853002 9.06212424849699  L 8.3768115942029 0.190380761523046  C 8.49413388543823 0.0634602538410147  8.62905452035887 0  8.7815734989648 0  C 8.93409247757074 0  9.06901311249137 0.0634602538410147  9.18633540372671 0.190380761523046  L 10.0662525879917 1.14228456913828  C 10.1835748792271 1.26920507682031  10.2422360248447 1.41516366065464  10.2422360248447 1.58016032064128  C 10.2422360248447 1.74515698062792  10.1835748792271 1.89111556446226  10.0662525879917 2.01803607214429  L 3.15010351966874 9.5  L 10.0662525879917 16.9819639278557  Z M 16.824016563147 16.9819639278557  C 16.9413388543823 17.1088844355377  17 17.2548430193721  17 17.4198396793587  C 17 17.5848363393454  16.9413388543823 17.7307949231797  16.824016563147 17.8577154308617  L 15.944099378882 18.809619238477  C 15.8267770876467 18.936539746159  15.691856452726 19  15.5393374741201 19  C 15.3868184955142 19  15.2518978605935 18.936539746159  15.1345755693582 18.809619238477  L 6.93374741200828 9.93787575150301  C 6.81642512077295 9.81095524382097  6.75776397515528 9.66499665998664  6.75776397515528 9.5  C 6.75776397515528 9.33500334001336  6.81642512077295 9.18904475617902  6.93374741200828 9.06212424849699  L 15.1345755693582 0.190380761523046  C 15.2518978605935 0.0634602538410147  15.3868184955142 0  15.5393374741201 0  C 15.691856452726 0  15.8267770876467 0.0634602538410147  15.944099378882 0.190380761523046  L 16.824016563147 1.14228456913828  C 16.9413388543823 1.26920507682031  17 1.41516366065464  17 1.58016032064128  C 17 1.74515698062792  16.9413388543823 1.89111556446226  16.824016563147 2.01803607214429  L 9.90786749482402 9.5  L 16.824016563147 16.9819639278557  Z " fill-rule="nonzero" fill="#ffffff" stroke="none" transform="matrix(1 0 0 1 1412 359 )" />
  </g>
</svg>