<?xml version="1.0" encoding="utf-8"?>
<svg version="1.1" xmlns:xlink="http://www.w3.org/1999/xlink" width="8px" height="4px" xmlns="http://www.w3.org/2000/svg">
  <g transform="matrix(1 0 0 1 -1049 -18 )">
    <path d="M 8 0.886956521739131  C 8 0.955233494363929  7.96856906534326 1.01384863123994  7.90570719602978 1.06280193236715  L 4.22332506203474 3.92657004830918  C 4.16046319272126 3.97552334943639  4.08602150537634 4  4 4  C 3.91397849462366 4  3.83953680727874 3.97552334943639  3.77667493796526 3.92657004830918  L 0.0942928039702233 1.06280193236715  C 0.0314309346567412 1.01384863123994  0 0.955233494363929  0 0.886956521739131  C 0 0.818679549114331  0.0314309346567412 0.760064412238325  0.0942928039702233 0.711111111111111  L 0.918114143920596 0.0734299516908212  C 0.980976013234078 0.0244766505636069  1.05541770057899 0  1.14143920595533 0  C 1.22746071133168 0  1.30190239867659 0.0244766505636069  1.36476426799007 0.0734299516908212  L 4 2.1256038647343  L 6.63523573200993 0.0734299516908212  C 6.69809760132341 0.0244766505636069  6.77253928866832 0  6.85856079404467 0  C 6.94458229942101 0  7.01902398676592 0.0244766505636069  7.0818858560794 0.0734299516908212  L 7.90570719602978 0.711111111111111  C 7.96856906534326 0.760064412238325  8 0.818679549114331  8 0.886956521739131  Z " fill-rule="nonzero" fill="#009688" stroke="none" transform="matrix(1 0 0 1 1049 18 )" />
  </g>
</svg>