<?xml version="1.0" encoding="utf-8"?>
<svg version="1.1" xmlns:xlink="http://www.w3.org/1999/xlink" width="12px" height="12px" xmlns="http://www.w3.org/2000/svg">
  <g transform="matrix(1 0 0 1 -522 -460 )">
    <path d="M 528 460  C 531.36 460  534 462.64  534 466  C 534 469.36  531.36 472  528 472  C 524.64 472  522 469.36  522 466  C 522 462.64  524.64 460  528 460  Z " fill-rule="nonzero" fill="#ff0000" stroke="none" />
    <path d="M 528 460.5  C 531.08 460.5  533.5 462.92  533.5 466  C 533.5 469.08  531.08 471.5  528 471.5  C 524.92 471.5  522.5 469.08  522.5 466  C 522.5 462.92  524.92 460.5  528 460.5  Z " stroke-width="1" stroke="#ff0000" fill="none" />
  </g>
</svg>