<?xml version="1.0" encoding="utf-8"?>
<svg version="1.1" xmlns:xlink="http://www.w3.org/1999/xlink" width="13px" height="13px" xmlns="http://www.w3.org/2000/svg">
  <g transform="matrix(1 0 0 1 -522 -720 )">
    <path d="M 528.5 720  C 532.14 720  535 722.86  535 726.5  C 535 730.14  532.14 733  528.5 733  C 524.86 733  522 730.14  522 726.5  C 522 722.86  524.86 720  528.5 720  Z " fill-rule="nonzero" fill="#ff0000" stroke="none" />
    <path d="M 528.5 720.5  C 531.86 720.5  534.5 723.14  534.5 726.5  C 534.5 729.86  531.86 732.5  528.5 732.5  C 525.14 732.5  522.5 729.86  522.5 726.5  C 522.5 723.14  525.14 720.5  528.5 720.5  Z " stroke-width="1" stroke="#ff0000" fill="none" />
  </g>
</svg>