<?xml version="1.0" encoding="utf-8"?>
<svg version="1.1" xmlns:xlink="http://www.w3.org/1999/xlink" width="100px" height="60px" xmlns="http://www.w3.org/2000/svg">
  <g transform="matrix(1 0 0 1 -521 -358 )">
    <path d="M 571 358  C 599 358  621 371.2  621 388  C 621 404.8  599 418  571 418  C 543 418  521 404.8  521 388  C 521 371.2  543 358  571 358  Z " fill-rule="nonzero" fill="#ffffff" stroke="none" />
    <path d="M 571 358.5  C 598.72 358.5  620.5 371.48  620.5 388  C 620.5 404.52  598.72 417.5  571 417.5  C 543.28 417.5  521.5 404.52  521.5 388  C 521.5 371.48  543.28 358.5  571 358.5  Z " stroke-width="1" stroke="#797979" fill="none" />
  </g>
</svg>