<?xml version="1.0" encoding="utf-8"?>
<svg version="1.1" xmlns:xlink="http://www.w3.org/1999/xlink" width="109px" height="74px" xmlns="http://www.w3.org/2000/svg">
  <g transform="matrix(1 0 0 1 -239 -708 )">
    <path d="M 240 712  A 3 3 0 0 1 243 709 L 344 709  A 3 3 0 0 1 347 712 L 347 778  A 3 3 0 0 1 344 781 L 243 781  A 3 3 0 0 1 240 778 L 240 712  Z " fill-rule="nonzero" fill="#ffffff" stroke="none" />
    <path d="M 239.5 712  A 3.5 3.5 0 0 1 243 708.5 L 344 708.5  A 3.5 3.5 0 0 1 347.5 712 L 347.5 778  A 3.5 3.5 0 0 1 344 781.5 L 243 781.5  A 3.5 3.5 0 0 1 239.5 778 L 239.5 712  Z " stroke-width="1" stroke-dasharray="9,4" stroke="#d9d9d9" fill="none" stroke-dashoffset="0.5" />
  </g>
</svg>