<?xml version="1.0" encoding="utf-8"?>
<svg version="1.1" xmlns:xlink="http://www.w3.org/1999/xlink" width="100px" height="60px" xmlns="http://www.w3.org/2000/svg">
  <g transform="matrix(1 0 0 1 -62 -103 )">
    <path d="M 112 103  C 140 103  162 116.2  162 133  C 162 149.8  140 163  112 163  C 84 163  62 149.8  62 133  C 62 116.2  84 103  112 103  Z " fill-rule="nonzero" fill="#ffffff" stroke="none" />
    <path d="M 112 103.5  C 139.72 103.5  161.5 116.48  161.5 133  C 161.5 149.52  139.72 162.5  112 162.5  C 84.28 162.5  62.5 149.52  62.5 133  C 62.5 116.48  84.28 103.5  112 103.5  Z " stroke-width="1" stroke="#797979" fill="none" />
  </g>
</svg>