<?xml version="1.0" encoding="utf-8"?>
<svg version="1.1" xmlns:xlink="http://www.w3.org/1999/xlink" width="104px" height="104px" xmlns="http://www.w3.org/2000/svg">
  <g transform="matrix(1 0 0 1 -246 -771 )">
    <path d="M 247 775  A 3 3 0 0 1 250 772 L 346 772  A 3 3 0 0 1 349 775 L 349 871  A 3 3 0 0 1 346 874 L 250 874  A 3 3 0 0 1 247 871 L 247 775  Z " fill-rule="nonzero" fill="#ffffff" stroke="none" />
    <path d="M 246.5 775  A 3.5 3.5 0 0 1 250 771.5 L 346 771.5  A 3.5 3.5 0 0 1 349.5 775 L 349.5 871  A 3.5 3.5 0 0 1 346 874.5 L 250 874.5  A 3.5 3.5 0 0 1 246.5 871 L 246.5 775  Z " stroke-width="1" stroke-dasharray="9,4" stroke="#d9d9d9" fill="none" stroke-dashoffset="0.5" />
  </g>
</svg>