<?xml version="1.0" encoding="utf-8"?>
<svg version="1.1" xmlns:xlink="http://www.w3.org/1999/xlink" width="104px" height="104px" xmlns="http://www.w3.org/2000/svg">
  <g transform="matrix(1 0 0 1 -126 -771 )">
    <path d="M 127 775  A 3 3 0 0 1 130 772 L 226 772  A 3 3 0 0 1 229 775 L 229 871  A 3 3 0 0 1 226 874 L 130 874  A 3 3 0 0 1 127 871 L 127 775  Z " fill-rule="nonzero" fill="#000000" stroke="none" fill-opacity="0.0196078431372549" />
    <path d="M 126.5 775  A 3.5 3.5 0 0 1 130 771.5 L 226 771.5  A 3.5 3.5 0 0 1 229.5 775 L 229.5 871  A 3.5 3.5 0 0 1 226 874.5 L 130 874.5  A 3.5 3.5 0 0 1 126.5 871 L 126.5 775  Z " stroke-width="1" stroke-dasharray="9,4" stroke="#d9d9d9" fill="none" stroke-dashoffset="0.5" />
  </g>
</svg>