<?xml version="1.0" encoding="utf-8"?>
<svg version="1.1" xmlns:xlink="http://www.w3.org/1999/xlink" width="14px" height="14px" xmlns="http://www.w3.org/2000/svg">
  <g transform="matrix(1 0 0 1 -1918 -2577 )">
    <path d="M 1925 2577  C 1928.92 2577  1932 2580.08  1932 2584  C 1932 2587.92  1928.92 2591  1925 2591  C 1921.08 2591  1918 2587.92  1918 2584  C 1918 2580.08  1921.08 2577  1925 2577  Z " fill-rule="nonzero" fill="#ffffff" stroke="none" fill-opacity="0" />
    <path d="M 1925 2577.5  C 1928.64 2577.5  1931.5 2580.36  1931.5 2584  C 1931.5 2587.64  1928.64 2590.5  1925 2590.5  C 1921.36 2590.5  1918.5 2587.64  1918.5 2584  C 1918.5 2580.36  1921.36 2577.5  1925 2577.5  Z " stroke-width="1" stroke="#1890ff" fill="none" />
  </g>
</svg>