<?xml version="1.0" encoding="utf-8"?>
<svg version="1.1" xmlns:xlink="http://www.w3.org/1999/xlink" width="14px" height="14px" xmlns="http://www.w3.org/2000/svg">
  <g transform="matrix(1 0 0 1 -1829 -2577 )">
    <path d="M 1836 2577  C 1839.92 2577  1843 2580.08  1843 2584  C 1843 2587.92  1839.92 2591  1836 2591  C 1832.08 2591  1829 2587.92  1829 2584  C 1829 2580.08  1832.08 2577  1836 2577  Z " fill-rule="nonzero" fill="#ffffff" stroke="none" fill-opacity="0" />
    <path d="M 1836 2577.5  C 1839.64 2577.5  1842.5 2580.36  1842.5 2584  C 1842.5 2587.64  1839.64 2590.5  1836 2590.5  C 1832.36 2590.5  1829.5 2587.64  1829.5 2584  C 1829.5 2580.36  1832.36 2577.5  1836 2577.5  Z " stroke-width="1" stroke="#d9d9d9" fill="none" />
  </g>
</svg>