<?xml version="1.0" encoding="utf-8"?>
<svg version="1.1" xmlns:xlink="http://www.w3.org/1999/xlink" width="438px" height="192px" xmlns="http://www.w3.org/2000/svg">
  <g transform="matrix(1 0 0 1 -1828 -3002 )">
    <path d="M 1829 3008  A 5 5 0 0 1 1834 3003 L 2260 3003  A 5 5 0 0 1 2265 3008 L 2265 3188  A 5 5 0 0 1 2260 3193 L 1834 3193  A 5 5 0 0 1 1829 3188 L 1829 3008  Z " fill-rule="nonzero" fill="#000000" stroke="none" fill-opacity="0.0196078431372549" />
    <path d="M 1828.5 3008  A 5.5 5.5 0 0 1 1834 3002.5 L 2260 3002.5  A 5.5 5.5 0 0 1 2265.5 3008 L 2265.5 3188  A 5.5 5.5 0 0 1 2260 3193.5 L 1834 3193.5  A 5.5 5.5 0 0 1 1828.5 3188 L 1828.5 3008  Z " stroke-width="1" stroke-dasharray="9,4" stroke="#108ee9" fill="none" stroke-dashoffset="0.5" />
  </g>
</svg>