<?xml version="1.0" encoding="utf-8"?>
<svg version="1.1" xmlns:xlink="http://www.w3.org/1999/xlink" width="104px" height="104px" xmlns="http://www.w3.org/2000/svg">
  <g transform="matrix(1 0 0 1 -1948 -2876 )">
    <path d="M 1949 2880  A 3 3 0 0 1 1952 2877 L 2048 2877  A 3 3 0 0 1 2051 2880 L 2051 2976  A 3 3 0 0 1 2048 2979 L 1952 2979  A 3 3 0 0 1 1949 2976 L 1949 2880  Z " fill-rule="nonzero" fill="#ffffff" stroke="none" />
    <path d="M 1948.5 2880  A 3.5 3.5 0 0 1 1952 2876.5 L 2048 2876.5  A 3.5 3.5 0 0 1 2051.5 2880 L 2051.5 2976  A 3.5 3.5 0 0 1 2048 2979.5 L 1952 2979.5  A 3.5 3.5 0 0 1 1948.5 2976 L 1948.5 2880  Z " stroke-width="1" stroke-dasharray="9,4" stroke="#d9d9d9" fill="none" stroke-dashoffset="0.5" />
  </g>
</svg>