<?xml version="1.0" encoding="utf-8"?>
<svg version="1.1" xmlns:xlink="http://www.w3.org/1999/xlink" width="18px" height="19px" xmlns="http://www.w3.org/2000/svg">
  <g transform="matrix(1 0 0 1 -1235 -516 )">
    <path d="M 1.38461538461538 14.5892857142857  L 1.38461538461538 17.6428571428571  L 4.5 17.6428571428571  L 4.5 14.5892857142857  L 1.38461538461538 14.5892857142857  Z M 5.19230769230769 14.5892857142857  L 5.19230769230769 17.6428571428571  L 8.65384615384615 17.6428571428571  L 8.65384615384615 14.5892857142857  L 5.19230769230769 14.5892857142857  Z M 1.38461538461538 10.5178571428571  L 1.38461538461538 13.9107142857143  L 4.5 13.9107142857143  L 4.5 10.5178571428571  L 1.38461538461538 10.5178571428571  Z M 5.19230769230769 10.5178571428571  L 5.19230769230769 13.9107142857143  L 8.65384615384615 13.9107142857143  L 8.65384615384615 10.5178571428571  L 5.19230769230769 10.5178571428571  Z M 1.38461538461538 6.78571428571428  L 1.38461538461538 9.83928571428571  L 4.5 9.83928571428571  L 4.5 6.78571428571428  L 1.38461538461538 6.78571428571428  Z M 9.34615384615385 14.5892857142857  L 9.34615384615385 17.6428571428571  L 12.8076923076923 17.6428571428571  L 12.8076923076923 14.5892857142857  L 9.34615384615385 14.5892857142857  Z M 5.19230769230769 6.78571428571428  L 5.19230769230769 9.83928571428571  L 8.65384615384615 9.83928571428571  L 8.65384615384615 6.78571428571428  L 5.19230769230769 6.78571428571428  Z M 13.5 14.5892857142857  L 13.5 17.6428571428571  L 16.6153846153846 17.6428571428571  L 16.6153846153846 14.5892857142857  L 13.5 14.5892857142857  Z M 9.34615384615385 10.5178571428571  L 9.34615384615385 13.9107142857143  L 12.8076923076923 13.9107142857143  L 12.8076923076923 10.5178571428571  L 9.34615384615385 10.5178571428571  Z M 5.43569711538462 4.98856026785714  C 5.50420673076923 4.92140997023809  5.53846153846154 4.84188988095238  5.53846153846154 4.75  L 5.53846153846154 1.69642857142857  C 5.53846153846154 1.60453869047619  5.50420673076923 1.52501860119048  5.43569711538462 1.45786830357143  C 5.3671875 1.39071800595238  5.28605769230769 1.35714285714286  5.19230769230769 1.35714285714286  L 4.5 1.35714285714286  C 4.40625 1.35714285714286  4.32512019230769 1.39071800595238  4.25661057692308 1.45786830357143  C 4.18810096153846 1.52501860119048  4.15384615384615 1.60453869047619  4.15384615384615 1.69642857142857  L 4.15384615384615 4.75  C 4.15384615384615 4.84188988095238  4.18810096153846 4.92140997023809  4.25661057692308 4.98856026785714  C 4.32512019230769 5.05571056547619  4.40625 5.08928571428572  4.5 5.08928571428572  L 5.19230769230769 5.08928571428572  C 5.28605769230769 5.08928571428572  5.3671875 5.05571056547619  5.43569711538462 4.98856026785714  Z M 13.5 10.5178571428571  L 13.5 13.9107142857143  L 16.6153846153846 13.9107142857143  L 16.6153846153846 10.5178571428571  L 13.5 10.5178571428571  Z M 9.34615384615385 6.78571428571428  L 9.34615384615385 9.83928571428571  L 12.8076923076923 9.83928571428571  L 12.8076923076923 6.78571428571428  L 9.34615384615385 6.78571428571428  Z M 13.5 6.78571428571428  L 13.5 9.83928571428571  L 16.6153846153846 9.83928571428571  L 16.6153846153846 6.78571428571428  L 13.5 6.78571428571428  Z M 13.7433894230769 4.98856026785714  C 13.8118990384615 4.92140997023809  13.8461538461538 4.84188988095238  13.8461538461538 4.75  L 13.8461538461538 1.69642857142857  C 13.8461538461538 1.60453869047619  13.8118990384615 1.52501860119048  13.7433894230769 1.45786830357143  C 13.6748798076923 1.39071800595238  13.59375 1.35714285714286  13.5 1.35714285714286  L 12.8076923076923 1.35714285714286  C 12.7139423076923 1.35714285714286  12.6328125 1.39071800595238  12.5643028846154 1.45786830357143  C 12.4957932692308 1.52501860119048  12.4615384615385 1.60453869047619  12.4615384615385 1.69642857142857  L 12.4615384615385 4.75  C 12.4615384615385 4.84188988095238  12.4957932692308 4.92140997023809  12.5643028846154 4.98856026785714  C 12.6328125 5.05571056547619  12.7139423076923 5.08928571428572  12.8076923076923 5.08928571428572  L 13.5 5.08928571428572  C 13.59375 5.08928571428572  13.6748798076923 5.05571056547619  13.7433894230769 4.98856026785714  Z M 17.5889423076923 3.1171875  C 17.8629807692308 3.38578869047619  18 3.70386904761905  18 4.07142857142857  L 18 17.6428571428571  C 18 18.0104166666667  17.8629807692308 18.3284970238095  17.5889423076923 18.5970982142857  C 17.3149038461538 18.8656994047619  16.9903846153846 19  16.6153846153846 19  L 1.38461538461538 19  C 1.00961538461538 19  0.685096153846154 18.8656994047619  0.411057692307692 18.5970982142857  C 0.137019230769231 18.3284970238095  0 18.0104166666667  0 17.6428571428571  L 0 4.07142857142857  C 0 3.70386904761905  0.137019230769231 3.38578869047619  0.411057692307692 3.1171875  C 0.685096153846154 2.84858630952381  1.00961538461538 2.71428571428572  1.38461538461538 2.71428571428572  L 2.76923076923077 2.71428571428572  L 2.76923076923077 1.69642857142857  C 2.76923076923077 1.22991071428572  2.93870192307692 0.830543154761904  3.27764423076923 0.498325892857143  C 3.61658653846154 0.166108630952381  4.02403846153846 0  4.5 0  L 5.19230769230769 0  C 5.66826923076923 0  6.07572115384616 0.166108630952381  6.41466346153846 0.498325892857143  C 6.75360576923077 0.830543154761904  6.92307692307692 1.22991071428572  6.92307692307692 1.69642857142857  L 6.92307692307692 2.71428571428572  L 11.0769230769231 2.71428571428572  L 11.0769230769231 1.69642857142857  C 11.0769230769231 1.22991071428572  11.2463942307692 0.830543154761904  11.5853365384615 0.498325892857143  C 11.9242788461538 0.166108630952381  12.3317307692308 0  12.8076923076923 0  L 13.5 0  C 13.9759615384615 0  14.3834134615385 0.166108630952381  14.7223557692308 0.498325892857143  C 15.0612980769231 0.830543154761904  15.2307692307692 1.22991071428572  15.2307692307692 1.69642857142857  L 15.2307692307692 2.71428571428572  L 16.6153846153846 2.71428571428572  C 16.9903846153846 2.71428571428572  17.3149038461538 2.84858630952381  17.5889423076923 3.1171875  Z " fill-rule="nonzero" fill="#cfcfcf" stroke="none" transform="matrix(1 0 0 1 1235 516 )" />
  </g>
</svg>