<?xml version="1.0" encoding="utf-8"?>
<svg version="1.1" xmlns:xlink="http://www.w3.org/1999/xlink" width="12px" height="12px" viewBox="710 498.5  12 12" xmlns="http://www.w3.org/2000/svg">
  <path d="M 716 498.5  C 719.36 498.5  722 501.14  722 504.5  C 722 507.86  719.36 510.5  716 510.5  C 712.64 510.5  710 507.86  710 504.5  C 710 501.14  712.64 498.5  716 498.5  Z " fill-rule="nonzero" fill="#f0f0f0" stroke="none" />
  <path d="M 716 499  C 719.08 499  721.5 501.42  721.5 504.5  C 721.5 507.58  719.08 510  716 510  C 712.92 510  710.5 507.58  710.5 504.5  C 710.5 501.42  712.92 499  716 499  Z " stroke-width="1" stroke="#797979" fill="none" />
  <path d="M 716 507.5  C 714.32 507.5  713 506.18  713 504.5  C 713 502.82  714.32 501.5  716 501.5  C 717.68 501.5  719 502.82  719 504.5  C 719 506.18  717.68 507.5  716 507.5  " fill-rule="nonzero" fill="#797979" stroke="none" />
</svg>