<?xml version="1.0" encoding="utf-8"?>
<svg version="1.1" xmlns:xlink="http://www.w3.org/1999/xlink" width="128px" height="152px" xmlns="http://www.w3.org/2000/svg">
  <g transform="matrix(1 0 0 1 -734 -341 )">
    <path d="M 734 341  L 862 341  L 862 493  L 734 493  L 734 341  " fill-rule="nonzero" fill="#cccccc" stroke="none" />
    <path d="M 743 350  L 853 350  L 853 484  L 743 484  L 743 350  " fill-rule="nonzero" fill="#ffffff" stroke="none" />
    <path d="M 810.16 383  C 804.784 383  800.56 378.776  800.56 373.4  C 800.56 368.024  804.784 363.8  810.16 363.8  C 815.536 363.8  819.76 368.024  819.76 373.4  C 819.76 378.776  815.536 383  810.16 383  " fill-rule="nonzero" fill="#cccccc" stroke="none" />
    <path d="M 746 481  L 746 410.6  L 772 378.6  L 808.4 404.2  L 829.2 397.8  L 850 404.2  L 850 481  L 746 481  " fill-rule="nonzero" fill="#169bd5" stroke="none" />
  </g>
</svg>