<?xml version="1.0" encoding="utf-8"?>
<svg version="1.1" xmlns:xlink="http://www.w3.org/1999/xlink" width="11px" height="14px" xmlns="http://www.w3.org/2000/svg">
  <g transform="matrix(1 0 0 1 -27 -146 )">
    <path d="M 6.69961051606621 13.9055397727273  C 6.63177539759818 13.9685132575758  6.55144433625446 14  6.45861733203505 14  L 4.61635832521908 14  C 4.52353132099968 14  4.44320025965596 13.9701704545455  4.37536514118793 13.9105113636364  C 4.3075300227199 13.8508522727273  4.27361246348588 13.7746212121212  4.27361246348588 13.6818181818182  L 4.27361246348588 10.4005681818182  L 1.18889970788705 10.4005681818182  C 1.09607270366764 10.4005681818182  1.01574164232392 10.3707386363636  0.947906523855891 10.3110795454545  C 0.880071405387861 10.2514204545455  0.846153846153846 10.1751893939394  0.846153846153846 10.0823863636364  L 0.846153846153846 9.05823863636364  C 0.846153846153846 8.97206439393939  0.880071405387861 8.89749053030303  0.947906523855891 8.83451704545455  C 1.01574164232392 8.77154356060606  1.09607270366764 8.74005681818182  1.18889970788705 8.74005681818182  L 4.27361246348588 8.74005681818182  L 4.27361246348588 7.89488636363636  L 1.18889970788705 7.89488636363636  C 1.09607270366764 7.89488636363636  1.01574164232392 7.86505681818182  0.947906523855891 7.80539772727273  C 0.880071405387861 7.74573863636364  0.846153846153846 7.66950757575758  0.846153846153846 7.57670454545455  L 0.846153846153846 6.54261363636364  C 0.846153846153846 6.45643939393939  0.880071405387861 6.38186553030303  0.947906523855891 6.31889204545455  C 1.01574164232392 6.25591856060606  1.09607270366764 6.22443181818182  1.18889970788705 6.22443181818182  L 3.48101265822785 6.22443181818182  L 0.0428432327166504 0.477272727272727  C -0.0142810775722168 0.371212121212121  -0.0142810775722168 0.265151515151513  0.0428432327166504 0.159090909090909  C 0.114248620577735 0.053030303030303  0.214216163583252 0  0.342745861733204 0  L 2.42064264849075 0  C 2.55631288542681 0  2.65985069782538 0.0596590909090911  2.73125608568647 0.178977272727273  L 5.03407984420643 4.40482954545455  C 5.16975008114249 4.65672348484848  5.36968516715352 5.07102272727273  5.63388510223953 5.64772727272727  C 5.70529049010062 5.48863636363636  5.81418370658877 5.26325757575757  5.96056475170399 4.97159090909091  C 6.10694579681922 4.67992424242424  6.20512820512821 4.47774621212121  6.25511197663096 4.36505681818182  L 8.30087633885102 0.188920454545455  C 8.35800064913989 0.0629734848484835  8.46153846153846 0  8.61148977604674 0  L 10.6572541382668 0  C 10.7786432976306 0  10.8750405712431 0.053030303030303  10.9464459591042 0.159090909090909  C 11.0107108081792 0.251893939393939  11.0142810775722 0.354640151515151  10.9571567672834 0.467329545454545  L 7.60467380720545 6.22443181818182  L 9.90749756572541 6.22443181818182  C 10.0003245699448 6.22443181818182  10.0806556312885 6.25591856060606  10.1484907497566 6.31889204545455  C 10.2163258682246 6.38186553030303  10.2502434274586 6.45643939393939  10.2502434274586 6.54261363636364  L 10.2502434274586 7.57670454545455  C 10.2502434274586 7.66950757575758  10.2163258682246 7.74573863636364  10.1484907497566 7.80539772727273  C 10.0806556312885 7.86505681818182  10.0003245699448 7.89488636363636  9.90749756572541 7.89488636363636  L 6.80136319376826 7.89488636363636  L 6.80136319376826 8.74005681818182  L 9.90749756572541 8.74005681818182  C 10.0003245699448 8.74005681818182  10.0806556312885 8.77154356060606  10.1484907497566 8.83451704545455  C 10.2163258682246 8.89749053030303  10.2502434274586 8.97206439393939  10.2502434274586 9.05823863636364  L 10.2502434274586 10.0823863636364  C 10.2502434274586 10.1751893939394  10.2163258682246 10.2514204545455  10.1484907497566 10.3110795454545  C 10.0806556312885 10.3707386363636  10.0003245699448 10.4005681818182  9.90749756572541 10.4005681818182  L 6.80136319376826 10.4005681818182  L 6.80136319376826 13.6818181818182  C 6.80136319376826 13.7679924242424  6.76744563453424 13.8425662878788  6.69961051606621 13.9055397727273  Z " fill-rule="nonzero" fill="#d6dbdb" stroke="none" transform="matrix(1 0 0 1 27 146 )" />
  </g>
</svg>