<?xml version="1.0" encoding="utf-8"?>
<svg version="1.1" xmlns:xlink="http://www.w3.org/1999/xlink" width="32px" height="32px" xmlns="http://www.w3.org/2000/svg">
  <g transform="matrix(1 0 0 1 -1068 -110 )">
    <path d="M 1084 110  C 1092.96 110  1100 117.04  1100 126  C 1100 134.96  1092.96 142  1084 142  C 1075.04 142  1068 134.96  1068 126  C 1068 117.04  1075.04 110  1084 110  Z " fill-rule="nonzero" fill="#ffffff" stroke="none" />
    <path d="M 1084 110.5  C 1092.68 110.5  1099.5 117.32  1099.5 126  C 1099.5 134.68  1092.68 141.5  1084 141.5  C 1075.32 141.5  1068.5 134.68  1068.5 126  C 1068.5 117.32  1075.32 110.5  1084 110.5  Z " stroke-width="1" stroke="#cccccc" fill="none" />
  </g>
</svg>