<?xml version="1.0" encoding="utf-8"?>
<svg version="1.1" xmlns:xlink="http://www.w3.org/1999/xlink" width="32px" height="32px" xmlns="http://www.w3.org/2000/svg">
  <g transform="matrix(1 0 0 1 -357 -110 )">
    <path d="M 373 110  C 381.96 110  389 117.04  389 126  C 389 134.96  381.96 142  373 142  C 364.04 142  357 134.96  357 126  C 357 117.04  364.04 110  373 110  Z " fill-rule="nonzero" fill="#ffffff" stroke="none" />
    <path d="M 373 110.5  C 381.68 110.5  388.5 117.32  388.5 126  C 388.5 134.68  381.68 141.5  373 141.5  C 364.32 141.5  357.5 134.68  357.5 126  C 357.5 117.32  364.32 110.5  373 110.5  Z " stroke-width="1" stroke="#c0c0c0" fill="none" />
  </g>
</svg>