<?xml version="1.0" encoding="utf-8"?>
<svg version="1.1" xmlns:xlink="http://www.w3.org/1999/xlink" width="19px" height="22px" xmlns="http://www.w3.org/2000/svg">
  <g transform="matrix(1 0 0 1 -1339 -120 )">
    <path d="M 14.2994791666667 0.834821428571429  L 18.1588541666667 4.66517857142857  C 18.3897569444444 4.89434523809524  18.5876736111111 5.20535714285714  18.7526041666667 5.59821428571429  C 18.9175347222222 5.99107142857143  19 6.35119047619048  19 6.67857142857143  L 19 20.8214285714286  C 19 21.1488095238095  18.8845486111111 21.4270833333333  18.6536458333333 21.65625  C 18.4227430555556 21.8854166666667  18.1423611111111 22  17.8125 22  L 1.1875 22  C 0.857638888888889 22  0.577256944444445 21.8854166666667  0.346354166666667 21.65625  C 0.115451388888889 21.4270833333333  0 21.1488095238095  0 20.8214285714286  L 0 1.17857142857143  C 0 0.851190476190476  0.115451388888889 0.572916666666666  0.346354166666667 0.34375  C 0.577256944444445 0.114583333333334  0.857638888888889 0  1.1875 0  L 12.2708333333333 0  C 12.6006944444444 0  12.9635416666667 0.081845238095239  13.359375 0.245535714285715  C 13.7552083333333 0.40922619047619  14.0685763888889 0.605654761904761  14.2994791666667 0.834821428571429  Z M 13.173828125 1.93973214285714  C 13.0748697916667 1.84151785714286  12.9058159722222 1.75148809523809  12.6666666666667 1.66964285714286  L 12.6666666666667 6.28571428571429  L 17.3177083333333 6.28571428571429  C 17.2352430555556 6.04836309523809  17.14453125 5.88058035714286  17.0455729166667 5.78236607142857  L 13.173828125 1.93973214285714  Z M 1.58333333333333 20  L 17.4166666666667 20  L 17.4166666666667 7.85714285714286  L 12.2708333333333 7.85714285714286  C 11.9409722222222 7.85714285714286  11.6605902777778 7.74255952380952  11.4296875 7.51339285714286  C 11.1987847222222 7.28422619047619  11.0833333333333 7.00595238095238  11.0833333333333 6.67857142857143  L 11.0833333333333 1.57142857142857  L 1.58333333333333 1.57142857142857  L 1.58333333333333 20  Z M 6.28385416666667 17.5558035714286  L 5.14583333333333 17.5558035714286  L 5.14583333333333 18.8571428571429  L 9.19075520833333 18.8571428571429  L 9.19075520833333 17.5558035714286  L 8.04036458333333 17.5558035714286  L 8.04036458333333 15.5055803571429  L 9.73502604166667 15.5055803571429  C 10.3617621527778 15.5055803571429  10.8483072916667 15.4441964285714  11.1946614583333 15.3214285714286  C 11.7471788194444 15.1331845238095  12.1863064236111 14.7771577380952  12.5120442708333 14.2533482142857  C 12.8377821180556 13.7295386904762  13.0006510416667 13.132068452381  13.0006510416667 12.4609375  C 13.0006510416667 11.7979910714286  12.8480902777778 11.2209821428571  12.54296875 10.7299107142857  C 12.2378472222222 10.2388392857143  11.8255208333333 9.8828125  11.3059895833333 9.66183035714286  C 10.91015625 9.50632440476191  10.3741319444444 9.42857142857143  9.69791666666667 9.42857142857143  L 5.14583333333333 9.42857142857143  L 5.14583333333333 10.7421875  L 6.28385416666667 10.7421875  L 6.28385416666667 17.5558035714286  Z M 10.4772135416667 13.9341517857143  C 10.2215711805556 14.0569196428571  9.89995659722223 14.1183035714286  9.51236979166667 14.1183035714286  L 8.04036458333333 14.1183035714286  L 8.04036458333333 10.828125  L 9.52473958333333 10.828125  C 9.95355902777778 10.828125  10.2957899305556 10.9017857142857  10.5514322916667 11.0491071428571  C 11.0132378472222 11.3191964285714  11.244140625 11.789806547619  11.244140625 12.4609375  C 11.244140625 13.1893601190476  10.9884982638889 13.680431547619  10.4772135416667 13.9341517857143  Z " fill-rule="nonzero" fill="#aeaeae" stroke="none" transform="matrix(1 0 0 1 1339 120 )" />
  </g>
</svg>